<?xml version="1.0" standalone="no"?>
<!DOCTYPE svg PUBLIC "-//W3C//DTD SVG 20010904//EN"
 "http://www.w3.org/TR/2001/REC-SVG-20010904/DTD/svg10.dtd">
<svg version="1.0" xmlns="http://www.w3.org/2000/svg"
 width="536.000000pt" height="538.000000pt" viewBox="0 0 536.000000 538.000000"
 preserveAspectRatio="xMidYMid meet">

<g transform="translate(0.000000,538.000000) scale(0.100000,-0.100000)"
fill="#000000" stroke="none">
<path d="M480 4925 l0 -425 330 0 330 0 0 425 0 425 -330 0 -330 0 0 -425z
m294 13 c20 -57 -29 -115 -61 -72 -16 22 -17 58 -2 85 15 29 51 21 63 -13z
m130 0 c20 -57 -29 -115 -61 -72 -16 22 -17 58 -2 85 15 29 51 21 63 -13z"/>
<path d="M740 4890 c0 -5 5 -10 10 -10 6 0 10 5 10 10 0 6 -4 10 -10 10 -5 0
-10 -4 -10 -10z"/>
<path d="M850 4890 c0 -5 5 -10 10 -10 6 0 10 5 10 10 0 6 -4 10 -10 10 -5 0
-10 -4 -10 -10z"/>
<path d="M1220 4925 l0 -425 330 0 330 0 0 425 0 425 -330 0 -330 0 0 -425z
m294 13 c20 -57 -29 -115 -61 -72 -16 22 -17 58 -2 85 15 29 51 21 63 -13z
m130 0 c20 -57 -29 -115 -61 -72 -16 22 -17 58 -2 85 15 29 51 21 63 -13z"/>
<path d="M1480 4890 c0 -5 5 -10 10 -10 6 0 10 5 10 10 0 6 -4 10 -10 10 -5 0
-10 -4 -10 -10z"/>
<path d="M1590 4890 c0 -5 5 -10 10 -10 6 0 10 5 10 10 0 6 -4 10 -10 10 -5 0
-10 -4 -10 -10z"/>
</g>
</svg>
