<?xml version="1.0" encoding="UTF-8" standalone="no"?>
<!DOCTYPE svg PUBLIC "-//W3C//DTD SVG 1.1//EN" "http://www.w3.org/Graphics/SVG/1.1/DTD/svg11.dtd">
<svg version="1.1" xmlns="http://www.w3.org/2000/svg" xmlns:xlink="http://www.w3.org/1999/xlink" preserveAspectRatio="xMidYMid meet" viewBox="0 0 130 210" width="130" height="210"><defs><path d="M0 210L0 0L130 0L130 210L0 210ZM74.41 120.58L63.97 98.74L52.41 120.58L74.41 120.58ZM38.38 54.77L37.24 54.98L36.12 55.27L35.03 55.63L33.97 56.07L32.93 56.58L31.92 57.16L30.94 57.81L29.99 58.53L29.08 59.3L28.2 60.14L27.36 61.03L26.57 61.98L25.81 62.99L25.1 64.04L24.44 65.15L23.82 66.29L23.26 67.49L22.74 68.72L22.28 69.99L21.87 71.3L21.53 72.65L21.24 74.02L21.01 75.43L20.84 76.86L20.74 78.32L20.71 79.8L20.74 81.28L20.84 82.74L21.01 84.17L21.24 85.58L21.53 86.95L21.87 88.3L22.28 89.61L22.74 90.88L23.26 92.11L23.82 93.31L24.44 94.45L25.1 95.56L25.81 96.61L26.57 97.62L27.36 98.57L28.2 99.46L29.08 100.3L29.99 101.07L30.94 101.79L31.92 102.44L32.93 103.02L33.97 103.53L35.03 103.97L36.12 104.33L37.24 104.62L38.38 104.83L39.53 104.96L40.71 105L41.88 104.96L43.04 104.83L44.18 104.62L45.29 104.33L46.38 103.97L47.45 103.53L48.49 103.02L49.5 102.44L50.48 101.79L51.43 101.07L52.34 100.3L53.21 99.46L54.05 98.57L54.85 97.62L55.6 96.61L56.31 95.56L56.98 94.45L57.59 93.31L58.16 92.11L58.67 90.88L59.13 89.61L59.54 88.3L59.89 86.95L60.18 85.58L60.41 84.17L60.57 82.74L60.67 81.28L60.71 79.8L60.67 78.32L60.57 76.86L60.41 75.43L60.18 74.02L59.89 72.65L59.54 71.3L59.13 69.99L58.67 68.72L58.16 67.49L57.59 66.29L56.98 65.15L56.31 64.04L55.6 62.99L54.85 61.98L54.05 61.03L53.21 60.14L52.34 59.3L51.43 58.53L50.48 57.81L49.5 57.16L48.49 56.58L47.45 56.07L46.38 55.63L45.29 55.27L44.18 54.98L43.04 54.77L41.88 54.64L40.71 54.6L39.53 54.64L38.38 54.77ZM87.67 52.06L86.54 52.27L85.42 52.56L84.33 52.92L83.26 53.36L82.22 53.87L81.21 54.45L80.23 55.1L79.29 55.82L78.37 56.59L77.5 57.43L76.66 58.32L75.87 59.27L75.11 60.28L74.4 61.33L73.74 62.44L73.12 63.58L72.55 64.78L72.04 66.01L71.58 67.28L71.17 68.59L70.82 69.94L70.53 71.31L70.31 72.72L70.14 74.15L70.04 75.61L70 77.09L70.04 78.57L70.14 80.03L70.31 81.46L70.53 82.86L70.82 84.24L71.17 85.58L71.58 86.89L72.04 88.17L72.55 89.4L73.12 90.59L73.74 91.74L74.4 92.85L75.11 93.9L75.87 94.91L76.66 95.86L77.5 96.75L78.37 97.59L79.29 98.36L80.23 99.08L81.21 99.73L82.22 100.31L83.26 100.82L84.33 101.26L85.42 101.62L86.54 101.91L87.67 102.12L88.83 102.25L90 102.29L91.18 102.25L92.34 102.12L93.47 101.91L94.59 101.62L95.68 101.26L96.75 100.82L97.79 100.31L98.8 99.73L99.78 99.08L100.72 98.36L101.64 97.59L102.51 96.75L103.35 95.86L104.14 94.91L104.9 93.9L105.61 92.85L106.27 91.74L106.89 90.59L107.46 89.4L107.97 88.17L108.43 86.89L108.84 85.58L109.19 84.24L109.48 82.86L109.7 81.46L109.87 80.03L109.97 78.57L110 77.09L109.97 75.61L109.87 74.15L109.7 72.72L109.48 71.31L109.19 69.94L108.84 68.59L108.43 67.28L107.97 66.01L107.46 64.78L106.89 63.58L106.27 62.44L105.61 61.33L104.9 60.28L104.14 59.27L103.35 58.32L102.51 57.43L101.64 56.59L100.72 55.82L99.78 55.1L98.8 54.45L97.79 53.87L96.75 53.36L95.68 52.92L94.59 52.56L93.47 52.27L92.34 52.06L91.18 51.93L90 51.89L88.83 51.93L87.67 52.06ZM48.44 83.38L49.54 84L50.5 84.82L51.3 85.81L51.9 86.95L52.28 88.21L52.41 89.57L52.28 90.92L51.9 92.18L51.3 93.32L50.5 94.32L49.54 95.14L48.44 95.76L47.22 96.15L45.91 96.29L44.6 96.15L43.38 95.76L42.28 95.14L41.31 94.32L40.52 93.32L39.92 92.18L39.54 90.92L39.41 89.57L39.54 88.21L39.92 86.95L40.52 85.81L41.31 84.82L42.28 84L43.38 83.38L44.6 82.98L45.91 82.85L47.22 82.98L48.44 83.38ZM89.49 83.36L90.75 83.96L91.86 84.76L92.77 85.73L93.46 86.84L93.89 88.06L94.04 89.38L93.89 90.7L93.46 91.92L92.77 93.03L91.86 94L90.75 94.8L89.49 95.4L88.09 95.78L86.59 95.92L85.09 95.78L83.69 95.4L82.42 94.8L81.32 94L80.41 93.03L79.72 91.92L79.28 90.7L79.13 89.38L79.28 88.06L79.72 86.84L80.41 85.73L81.32 84.76L82.42 83.96L83.69 83.36L85.09 82.98L86.59 82.85L88.09 82.98L89.49 83.36Z" id="fh1rhnI31"></path></defs><g><g><g><use xlink:href="#fh1rhnI31" opacity="1" fill="#000000" fill-opacity="1"></use></g></g></g></svg>